<svg xmlns="http://www.w3.org/2000/svg" width="18" height="18" viewBox="0 0 18 18">
  <path id="close-square" d="M12.707,12l2.146,2.146a.5.5,0,0,1-.707.707L12,12.707,9.854,14.854a.5.5,0,0,1-.707-.707L11.293,12,9.146,9.854a.5.5,0,0,1,.707-.707L12,11.293l2.146-2.146a.5.5,0,1,1,.707.707ZM3,5.5A2.5,2.5,0,0,1,5.5,3h13A2.5,2.5,0,0,1,21,5.5v13A2.5,2.5,0,0,1,18.5,21H5.5A2.5,2.5,0,0,1,3,18.5Zm1,0v13A1.5,1.5,0,0,0,5.5,20h13A1.5,1.5,0,0,0,20,18.5V5.5A1.5,1.5,0,0,0,18.5,4H5.5A1.5,1.5,0,0,0,4,5.5Z" transform="translate(-3 -3)" fill="#252834" opacity="0.5"/>
</svg>
