<svg xmlns="http://www.w3.org/2000/svg" width="76.705" height="57.529" viewBox="0 0 76.705 57.529">
  <g id="Group_18" data-name="Group 18" transform="translate(-156.412 -176.408)">
    <path id="Path_33" data-name="Path 33" d="M208.12,176.408h13.933l-.216,2.016-.288,2.88H213.2l-.5,4.825h7.669l-.432,4.176h-7.669L211,201.467h-5.509Z" transform="translate(-45.618 0)" fill="#252934"/>
    <g id="Group_16" data-name="Group 16" transform="translate(179.463 176.433)">
      <path id="Path_34" data-name="Path 34" d="M483.235,472.922c.018-.028.037-.056.055-.084h-.031C483.254,472.857,483.242,472.9,483.235,472.922Z" transform="translate(-483.235 -451.956)" fill="#252934"/>
      <path id="Path_35" data-name="Path 35" d="M486.349,180.484v.006a8.383,8.383,0,0,1,.449,1.3,4.352,4.352,0,0,0,.364.568,4.549,4.549,0,0,0,.447.507c.826.808,1.973.961,2.89,1.649.765.612-.688.994-.529,1.859,0,.033.008.065.014.1,0,.015.007.03.011.045l.009.034a1.129,1.129,0,0,0,1,.831,1.076,1.076,0,0,1,.123.5,1.087,1.087,0,0,1-.581.962.826.826,0,0,1,1.02.679,1.127,1.127,0,0,0-.4.839l0,0c0,.012,0,.025,0,.037a1.057,1.057,0,0,0,.244.676,1.1,1.1,0,0,0,.174.179,1.259,1.259,0,0,1-.293,1.954l0,0a14.32,14.32,0,0,1-2.908,1.131h0a7.7,7.7,0,0,0-4.377,3.3h5.332q.086,1.368.128,2.43t.043,1.746h6.9v-.072L493,176.762h-7.533l-.587,1.523a8.4,8.4,0,0,1,1.467,2.2Z" transform="translate(-483.953 -176.762)" fill="#252934"/>
    </g>
    <path id="Path_36" data-name="Path 36" d="M716.176,193.8h5.617l-.216,2.232-.252,2.52q-.072.36-.126.684a2.149,2.149,0,0,1-.2.612,2.8,2.8,0,0,1-.648.9,2.373,2.373,0,0,1-.9.54,3.141,3.141,0,0,1-.666.144,6.688,6.688,0,0,1-.7.036H706.491a3.6,3.6,0,0,1-1.26-.18,1.826,1.826,0,0,1-.864-.54,1.177,1.177,0,0,1-.27-.414q-.09-.234-.162-.486a4.692,4.692,0,0,1-.036-1.3l.036-.576.072-.5,1.908-18.146a4.206,4.206,0,0,1,.288-1.3q.144-.252.288-.486a1.69,1.69,0,0,1,.36-.414,5.048,5.048,0,0,1,.432-.324,1.59,1.59,0,0,1,.54-.216,2.533,2.533,0,0,1,.612-.144,6.2,6.2,0,0,1,.684-.036h11.593a6.708,6.708,0,0,1,.7.036,2.546,2.546,0,0,1,.63.144,1.624,1.624,0,0,1,.792.54,1.86,1.86,0,0,1,.432.9,1.728,1.728,0,0,1,.108.612q0,.324-.036.684l-.072.576-.072.5-.036.432-.036.4-.144,1.224-.072.756-.036.324-.036.54H717.22l.144-1.368.144-1.4H711.28l-.18,1.548-.216,2.16-.5,4.825-.72,6.769h6.229l.144-1.26Z" transform="translate(-508.846 0)" fill="#252934"/>
    <path id="Path_37" data-name="Path 37" d="M1011.774,176.408h13.933l-.5,4.9h-8.353l-.5,4.825h7.669l-.432,4.176h-7.669l-.684,6.3h8.353l-.5,4.86h-13.933Z" transform="translate(-792.591 0)" fill="#252934"/>
    <path id="Path_38" data-name="Path 38" d="M159.04,636.795h13.933l-.216,2.016-.288,2.88h-8.353l-.5,4.824h7.669l-.432,4.176h-7.669l-1.26,11.161h-5.509Z" transform="translate(0 -427.916)" fill="#252934"/>
    <path id="Path_39" data-name="Path 39" d="M592.616,661.854h-6.265l2.124-20.162h-6.157l.5-4.9h18.686l-.5,4.9H594.74Z" transform="translate(-395.868 -427.916)" fill="#252934"/>
    <g id="Group_17" data-name="Group 17" transform="translate(174.384 208.879)">
      <path id="Path_40" data-name="Path 40" d="M447.286,641.656l.5-4.862H441.58l-.507,4.862Z" transform="translate(-438.968 -636.795)" fill="#252934"/>
      <path id="Path_41" data-name="Path 41" d="M412.826,774.24l-1.6,15.365h6.229l1.589-15.365Z" transform="translate(-411.224 -764.546)" fill="#252934"/>
    </g>
  </g>
</svg>
