<svg xmlns="http://www.w3.org/2000/svg" width="52.203" height="39.153" viewBox="0 0 52.203 39.153">
  <g id="mobile-nav-logo" transform="translate(-156.412 -176.408)">
    <path id="Path_33" data-name="Path 33" d="M207.281,176.408h9.483l-.147,1.372-.2,1.96h-5.685l-.343,3.283h5.219l-.294,2.842H210.1l-.858,7.6h-3.749Z" transform="translate(-46.724 0)" fill="#fff"/>
    <g id="Group_16" data-name="Group 16" transform="translate(172.1 176.425)">
      <path id="Path_34" data-name="Path 34" d="M483.235,472.895l.037-.057h-.021C483.248,472.851,483.239,472.878,483.235,472.895Z" transform="translate(-483.235 -458.626)" fill="#fff"/>
      <path id="Path_35" data-name="Path 35" d="M485.6,179.295v0a5.709,5.709,0,0,1,.306.885,2.967,2.967,0,0,0,.247.386,3.1,3.1,0,0,0,.3.345c.562.55,1.343.654,1.967,1.122.52.416-.468.676-.36,1.265,0,.022.005.044.01.066s0,.02.007.03l.006.023a.768.768,0,0,0,.683.565.74.74,0,0,1-.312,1,.562.562,0,0,1,.694.462.767.767,0,0,0-.269.571h0c0,.008,0,.017,0,.025a.72.72,0,0,0,.166.46.752.752,0,0,0,.118.122.857.857,0,0,1-.2,1.33h0a9.745,9.745,0,0,1-1.979.769h0a5.242,5.242,0,0,0-2.979,2.247h3.628q.058.931.087,1.654t.029,1.188h4.693v-.049l-2.318-17H485l-.4,1.037a5.715,5.715,0,0,1,1,1.5Z" transform="translate(-483.971 -176.762)" fill="#fff"/>
    </g>
    <path id="Path_36" data-name="Path 36" d="M712.245,188.243h3.822l-.147,1.519-.172,1.715q-.049.245-.086.466a1.462,1.462,0,0,1-.135.417,1.9,1.9,0,0,1-.441.613,1.615,1.615,0,0,1-.613.368,2.137,2.137,0,0,1-.453.1,4.553,4.553,0,0,1-.478.025h-7.89a2.448,2.448,0,0,1-.858-.123,1.243,1.243,0,0,1-.588-.368.8.8,0,0,1-.184-.282q-.061-.159-.11-.331a3.192,3.192,0,0,1-.024-.882l.024-.392.049-.343,1.3-12.349a2.863,2.863,0,0,1,.2-.882q.1-.172.2-.331a1.151,1.151,0,0,1,.245-.282,3.435,3.435,0,0,1,.294-.221,1.082,1.082,0,0,1,.368-.147,1.724,1.724,0,0,1,.417-.1,4.223,4.223,0,0,1,.466-.024h7.89a4.567,4.567,0,0,1,.478.024,1.733,1.733,0,0,1,.429.1,1.1,1.1,0,0,1,.539.368,1.265,1.265,0,0,1,.294.613,1.176,1.176,0,0,1,.073.417q0,.221-.024.466l-.049.392-.049.343-.024.294-.025.27-.1.833-.049.515-.025.221-.025.368h-3.822l.1-.931.1-.956h-4.239l-.123,1.054-.147,1.47-.343,3.283-.49,4.607h4.239l.1-.858Z" transform="translate(-521.18 0)" fill="#fff"/>
    <path id="Path_37" data-name="Path 37" d="M1010.935,176.408h9.483l-.343,3.332h-5.685l-.343,3.283h5.219l-.294,2.842h-5.219l-.466,4.288h5.685l-.343,3.308h-9.483Z" transform="translate(-811.803 0)" fill="#fff"/>
    <path id="Path_38" data-name="Path 38" d="M158.2,636.795h9.483l-.147,1.372-.2,1.96h-5.685l-.343,3.283h5.219l-.294,2.842h-5.219l-.858,7.6h-3.749Z" transform="translate(0 -438.288)" fill="#fff"/>
    <path id="Path_39" data-name="Path 39" d="M589.327,653.849h-4.263l1.446-13.722h-4.19l.343-3.332h12.717l-.343,3.332h-4.263Z" transform="translate(-405.463 -438.288)" fill="#fff"/>
    <g id="Group_17" data-name="Group 17" transform="translate(168.643 198.507)">
      <path id="Path_40" data-name="Path 40" d="M445.3,640.1l.342-3.309h-4.225l-.345,3.309Z" transform="translate(-439.64 -636.795)" fill="#fff"/>
      <path id="Path_41" data-name="Path 41" d="M412.314,774.24l-1.09,10.457h4.239l1.082-10.457Z" transform="translate(-411.224 -767.643)" fill="#fff"/>
    </g>
  </g>
</svg>
