<svg xmlns="http://www.w3.org/2000/svg" width="58" height="58" viewBox="0 0 58 58">
  <g id="Group_20" data-name="Group 20" transform="translate(-900 -58)">
    <path id="hamburger-menu" d="M3.819,7.638A.819.819,0,1,1,3.819,6H31.671a.819.819,0,0,1,0,1.638Zm0,8.192a.819.819,0,0,1,0-1.638H31.671a.819.819,0,0,1,0,1.638Zm0,8.192a.819.819,0,0,1,0-1.638H31.671a.819.819,0,0,1,0,1.638Z" transform="translate(911.51 72)" fill="#252934"/>
    <g id="Rectangle_6" data-name="Rectangle 6" transform="translate(900 58)" fill="none" stroke="#252834" stroke-width="1" opacity="0.3">
      <rect width="58" height="58" rx="2" stroke="none"/>
      <rect x="0.5" y="0.5" width="57" height="57" rx="1.5" fill="none"/>
    </g>
  </g>
</svg>
